<?xml version="1.0" encoding="UTF-8" standalone="no"?>
<!-- Created with Inkscape (http://www.inkscape.org/) -->

<svg
   xmlns:dc="http://purl.org/dc/elements/1.1/"
   xmlns:cc="http://creativecommons.org/ns#"
   xmlns:rdf="http://www.w3.org/1999/02/22-rdf-syntax-ns#"
   xmlns:svg="http://www.w3.org/2000/svg"
   xmlns="http://www.w3.org/2000/svg"
   xmlns:sodipodi="http://sodipodi.sourceforge.net/DTD/sodipodi-0.dtd"
   xmlns:inkscape="http://www.inkscape.org/namespaces/inkscape"
   id="svg2"
   version="1.1"
   inkscape:version="0.48.2 r9819"
   width="763.4125"
   height="518.65"
   xml:space="preserve"
   sodipodi:docname="20111010_logo.svg"><metadata
     id="metadata8"><rdf:RDF><cc:Work
         rdf:about=""><dc:format>image/svg+xml</dc:format><dc:type
           rdf:resource="http://purl.org/dc/dcmitype/StillImage" /><dc:title /></cc:Work></rdf:RDF></metadata><defs
     id="defs6" /><sodipodi:namedview
     pagecolor="#ffffff"
     bordercolor="#666666"
     borderopacity="1"
     objecttolerance="10"
     gridtolerance="10"
     guidetolerance="10"
     inkscape:pageopacity="0"
     inkscape:pageshadow="2"
     inkscape:window-width="1280"
     inkscape:window-height="1000"
     id="namedview4"
     showgrid="false"
     inkscape:zoom="0.6038675"
     inkscape:cx="188.92539"
     inkscape:cy="246.55652"
     inkscape:window-x="0"
     inkscape:window-y="24"
     inkscape:window-maximized="1"
     inkscape:current-layer="g10" /><g
     id="g10"
     inkscape:groupmode="layer"
     inkscape:label="ink_ext_XXXXXX"
     transform="matrix(1.25,0,0,-1.25,0,518.65)"><g
       id="g12"
       transform="scale(0.1,0.1)"
       inkscape:export-filename="/home/alexis/Ubuntu One/Admin/logo.png"
       inkscape:export-xdpi="200"
       inkscape:export-ydpi="200"><path
         d="m 719.602,2855.48 c -118.805,0 -232.957,-220.17 -279.567,-423.61 179.461,10.48 337.77,168.65 337.77,339.29 0,51.4 -13.95,84.32 -58.203,84.32 z m -135.207,-777 c 184.144,0 295.921,90.17 412.414,207.56 l 79.231,0 C 943.281,2096.86 745.188,1905.77 435.352,1905.77 c -218.965,0 -363.4653,94.44 -363.4653,326.81 0,236.37 151.4493,731.96 629.0313,731.96 207.402,0 256.285,-94.59 256.285,-197.57 0,-236.17 -256.285,-419.28 -535.808,-433.74 -2.333,-28.65 -4.637,-57.66 -4.637,-82.19 0,-140.05 55.894,-172.56 167.637,-172.56"
         style="fill:#18223e;fill-opacity:1;fill-rule:nonzero;stroke:none"
         id="path14" /><path
         d="m 1927.87,2808.09 c 0,-328.81 -188.67,-902.32 -663.94,-902.32 -177.16,0 -286.551,80.25 -286.551,242.34 0,22.68 2.246,59.54 11.586,98.72 l 167.775,699.25 335.45,0 -167.63,-699.25 c -7.11,-28.71 -11.68,-55.31 -11.68,-73.99 0,-41.32 23.28,-67.92 79.16,-67.92 228.29,0 403.07,460.54 403.07,686.85 -7.03,-14.27 -55.91,-20.61 -74.57,-20.61 -55.87,0 -83.88,59.73 -83.88,104.86 0,63.79 46.61,111.18 144.43,111.18 111.85,0 146.78,-88.59 146.78,-179.11"
         style="fill:#18223e;fill-opacity:1;fill-rule:nonzero;stroke:none"
         id="path16" /><path
         d="m 2558.38,2866.85 c -118.84,0 -232.99,-220.24 -279.57,-423.67 179.43,10.46 337.79,168.57 337.79,339.28 0,51.39 -14,84.39 -58.22,84.39 z m -135.21,-777.02 c 184.15,0 295.97,90.12 412.46,207.64 l 79.16,0 c -132.77,-189.16 -330.82,-380.48 -640.69,-380.48 -218.96,0 -363.39,94.59 -363.39,326.96 0,236.35 151.38,731.89 629.01,731.89 207.42,0 256.3,-94.59 256.3,-197.51 0,-236.23 -256.3,-419.27 -535.86,-433.74 -2.27,-28.73 -4.62,-57.74 -4.62,-82.18 0,-140.12 55.87,-172.58 167.63,-172.58"
         style="fill:#18223e;fill-opacity:1;fill-rule:nonzero;stroke:none"
         id="path18" /><path
         d="m 3322.06,2946.08 -30.21,-127.52 c 81.43,61.65 170.06,127.52 281.83,127.52 104.86,0 160.76,-76.13 160.76,-154.31 0,-71.99 -53.55,-150.18 -167.75,-150.18 -130.45,0 -65.22,135.91 -135.06,135.91 -69.95,0 -111.87,-31.07 -170.1,-78.26 l -186.44,-781.15 -335.39,0 246.93,1027.99 335.43,0"
         style="fill:#18223e;fill-opacity:1;fill-rule:nonzero;stroke:none"
         id="path20" /><path
         d="m 1114.71,1239.79 c 0,72.83 -32.96,119.53 -102.65,119.53 -231.083,0 -469.372,-533.711 -469.372,-857.211 0,-198.679 87.8,-244.82 264.085,-244.82 289.437,0 465.727,127.91 648.907,294.41 l 124.76,0 C 1371.19,283.531 1059.63,12.1094 572.066,12.1094 227.055,12.1094 0,146.328 0,475.949 0,814.059 241.941,1513.98 986.301,1513.98 c 326.469,0 407.069,-134.12 407.069,-268.19 0,-143.15 -87.91,-213.09 -194.47,-213.09 -40.31,0 -84.19,11.61 -128.1,34.82 29.07,64.26 43.91,122.81 43.91,172.27"
         style="fill:#18223e;fill-opacity:1;fill-rule:nonzero;stroke:none"
         id="path22" /><path
         d="m 2550.63,884.391 c 12.74,81.918 17.05,223.079 13.02,279.079 -8.68,121.86 -39.44,168.78 -125.14,168.78 -233.71,0 -438.04,-532.031 -438.04,-817.43 0,-191.789 42.75,-235.359 167.89,-235.359 161.64,0 328.91,261.918 382.27,604.93 z M 2833.88,1044 c 13.36,-5.65 26.37,-5.65 36.47,-5.65 151.55,0 365.7,87.3 507.13,174.72 l 29.66,-78.61 C 3281.92,1014.93 3064.62,927.918 2824.06,892.75 2771.29,355.039 2441.81,18.1797 2036.71,18.1797 c -306.35,0 -527.35,127.7893 -527.35,459.0823 0,334.437 224.23,1032.378 902.8,1032.378 283.55,0 421.72,-159.96 421.72,-465.64"
         style="fill:#18223e;fill-opacity:1;fill-rule:nonzero;stroke:none"
         id="path24" /><path
         d="m 4062.63,884.391 c 14.21,93.14 18.16,196.409 13.02,279.079 -7.49,121.86 -39.39,168.78 -125.13,168.78 -233.68,0 -438.01,-532.031 -438.01,-817.43 0,-191.789 42.65,-235.359 167.85,-235.359 161.69,0 329.88,261.73 382.27,604.93 z M 4345.88,1044 c 13.3,-5.65 26.41,-5.65 36.51,-5.65 151.44,0 365.59,87.3 507.06,174.72 l 29.7,-78.61 C 4794.03,1014.93 4576.63,927.918 4336.01,892.75 4283.29,355.039 3953.82,18.1797 3548.68,18.1797 c -306.42,0 -527.39,127.7893 -527.39,459.0823 0,334.437 224.27,1032.378 902.84,1032.378 283.55,0 421.75,-159.96 421.75,-465.64"
         style="fill:#18223e;fill-opacity:1;fill-rule:nonzero;stroke:none"
         id="path26" /><path
         d="m 4789.9,3390.01 c -57.59,22.1 59.5,740.63 59.5,740.63 0,0 -248.77,-727.82 -297.95,-674.7 -49.26,53.18 109.21,750.42 85.21,689.45 -24.25,-61.18 -435.75,-875.11 -226.66,-943.38 44.34,-14.47 42.7,-61.39 37.75,-88.19 l -207.96,-841.29 c -35.06,-96.5 -95.55,-168.16 -181.74,-168.16 -53.64,0 -69.96,43.41 -69.96,90.87 0,16.53 2.3,37.12 7.06,53.5 l 167.64,701.26 -335.43,0 -158.44,-661.85 c -11.67,-49.46 -18.67,-95.6 -18.67,-135.15 0,-172.29 109.54,-246.51 249.35,-246.51 79.16,0 181.73,17.96 279.52,114.62 l -106.53,-448.1 c 86.83,-5.58 246.34,-79.78 281.24,-182.58 l 416.64,1682.46 c 8.55,49.18 37.72,58.32 77.58,67.41 103.23,23.43 130.5,187.47 145.4,274 19.43,113.18 72.5,676.38 72.5,676.38 0,0 -218.19,-723.07 -276.05,-700.67"
         style="fill:#18223e;fill-opacity:1;fill-rule:nonzero;stroke:none"
         id="path28" /><path
         d="m 5864.63,384.391 c 0,30.629 9.64,61.23 15.88,89.078 l 34.62,138.89 c 9.29,35.95 12.44,72.231 12.44,105.75 0,177.719 -113.41,325.141 -346.35,325.141 -34.64,0 -69.11,-45.02 -103.73,-50.762 l 629.8,347.512 -311.86,0 -668.28,-383.512 c 0,0 101.62,440.252 105.89,466.842 4.31,26.66 -19.81,49.4 -19.81,49.4 l 169.22,72.37 c 0,0 74.1,364.98 86.06,421.88 l -17.47,27.47 26.9,18.51 c 1.22,5.66 2.46,11.99 3.69,18.05 l -17.87,27.29 27.51,18.25 c 1.19,5.45 2.37,11.15 3.51,16.73 l -18.36,27.77 28.23,18.8 c 1.03,5.03 2.17,10.27 3.28,15.44 l -18.94,28.45 29.01,19.15 c 0.93,4.67 1.94,9.5 3,14.33 l -19.35,29.07 29.61,19.64 c 0.9,4.41 1.88,8.95 2.81,13.36 l -19.75,29.68 30.27,20.12 c 0.86,4.07 1.69,8.06 2.61,12.2 l -20.17,30.37 30.94,20.61 c 0.71,3.64 1.46,7.3 2.29,10.95 l -20.69,31.14 31.69,20.95 c 0.72,3.3 1.35,6.61 2.1,9.91 l -21.14,31.63 32.3,21.56 c 0.63,2.95 1.28,5.78 1.89,8.82 l -21.45,32.38 32.88,21.9 c 0.61,2.47 1.12,5.15 1.63,7.79 l -21.87,32.93 39.5036,15.9452 c 3.4309,5.0693 0.8233,1.0682 3.8418,9.15 -20.6809,30.7729 -3.046,3.7798 -22.8766,34.2655 32.3832,16.7513 0.2847,0.3534 33.666,17.988 l 1.6419,9.9532 -24.7007,28.2059 32.4179,22.6021 c 2.1069,-0.2297 0.7857,3.9345 0.8245,6.0536 l -26.3784,30.4465 32.52,28.34 c 0.53,3.08 0.84,9.47 1.27,12.5 l -21.16,33.56 26.4,18.3 c 0.63,7.31 1.13,15.06 1.63,22.24 l -15.41,23.48 17.21,11.5 c 11.72,282.19 -83.29,511.59 -314.82,727.01 -117.06,-486.16 -141.59,-615.05 -477.24,-2089.94 -4.12,-18 22.94,-45.6 22.94,-45.6 0,0 -32.76,4.79 -46.72,-52.65 C 4746.49,1091.04 4640.65,620 4501.15,0 l 393.02,0 163.55,700.73 c 88.18,64.04 221.29,110.309 293.54,110.309 82.07,0 113.49,-49.078 113.49,-129.801 0,-30.32 -3.16,-65.027 -12.54,-101 L 5427.05,472.57 c -12.47,-53.058 -18.97,-99.769 -18.97,-144.289 0,-202.601 138.5,-316.2224 396.71,-316.2224 82.03,0 277.24,89.0624 292.87,286.0704 -21.88,-8.379 -34.53,-16.801 -110.28,-16.801 -97.56,0 -122.75,47.551 -122.75,103.063"
         style="fill:#18223e;fill-opacity:1;fill-rule:nonzero;stroke:none"
         id="path30"
         inkscape:connector-curvature="0"
         sodipodi:nodetypes="cccssccccccccccccccccccccccccccccccccccccccccccccccccccccccccccccccssccsscsc" /><path
         d="m 4061.77,887.012 c 14.7,93.359 18.77,196.958 13.51,279.848 -7.79,122.19 -40.79,169.25 -129.41,169.25 -241.65,0 -452.9,-533.559 -452.9,-819.782 0,-192.348 44.1,-236.098 173.57,-236.098 167.13,0 341.08,262.551 395.23,606.782 z m 292.89,160.028 c -1.11,-14.47 0.12,-55.169 -10.2,-151.669 C 4286.9,356.328 3949.28,18.1797 3530.35,18.1797 c -316.79,0 -545.27,128.1483 -545.27,460.4493 0,335.43 231.85,1035.351 933.51,1035.351 293.19,0 457.85,-183.17 436.07,-466.94"
         style="fill:#18223e;fill-opacity:1;fill-rule:nonzero;stroke:none"
         id="path32" /><path
         d="m 2539.44,887.012 c 14.67,93.359 18.73,196.958 13.47,279.848 -7.76,122.19 -40.75,169.25 -129.42,169.25 -241.6,0 -452.91,-533.559 -452.91,-819.782 0,-192.348 44.15,-236.098 173.59,-236.098 167.13,0 341.09,262.551 395.27,606.782 z m 292.85,160.028 c -1.11,-14.47 0.13,-55.169 -10.16,-151.669 -57.57,-539.043 -395.24,-877.1913 -814.16,-877.1913 -316.78,0 -545.29,128.1483 -545.29,460.4493 0,335.43 231.88,1035.351 933.54,1035.351 293.19,0 457.82,-183.17 436.07,-466.94"
         style="fill:#18223e;fill-opacity:1;fill-rule:nonzero;stroke:none"
         id="path34" /></g></g></svg>